<?xml version="1.0" standalone="no"?><!DOCTYPE svg PUBLIC "-//W3C//DTD SVG 1.1//EN" "http://www.w3.org/Graphics/SVG/1.1/DTD/svg11.dtd"><svg t="1770206225075" class="icon" viewBox="0 0 1024 1024" version="1.1" xmlns="http://www.w3.org/2000/svg" p-id="14007" xmlns:xlink="http://www.w3.org/1999/xlink" width="128" height="128"><path d="M899.168 623.232c15.904 9.312 34.464 20.256 59.744 36.96a14.464 14.464 0 0 1 6.08 11.104 14.688 14.688 0 0 1-5.12 11.232 1058.752 1058.752 0 0 1-68.064 49.664c-89.408 60.608-178.56 100.64-264.704 119.104-38.72 8.352-77.728 12.704-116.736 12.704-39.04 0-77.888-4.352-116.736-12.704-84.768-18.464-171.2-57.856-257.056-116.992a1007.488 1007.488 0 0 1-69.12-51.744 14.496 14.496 0 0 1-5.344-11.584 13.536 13.536 0 0 1 6.56-10.784l102.848-64.928c2.208-11.712 4.544-23.296 7.36-34.72-31.68-47.232-110.208-188.672-84.608-407.104a28.128 28.128 0 0 1 10.624-19.456 27.36 27.36 0 0 1 21.376-5.6c46.496 6.912 125.632 45.952 192.448 89.504a464.768 464.768 0 0 1 194.912-42.88c67.584 0 133.44 14.752 193.856 42.08 66.496-43.072 144.992-81.792 191.2-88.704a26.016 26.016 0 0 1 21.056 5.6 27.904 27.904 0 0 1 10.944 19.456c25.92 219.232-53.856 361.28-85.376 407.584 14.208 39.04 14.816 39.712 46.208 57.888l7.648 4.32zM680.32 235.264a438.624 438.624 0 0 0-335.264 0.32c39.968 27.808 72.736 55.936 85.696 76.48 30.72-7.872 62.88-12.032 95.52-11.392 23.872 0.32 47.264 3.36 69.92 8.512 14.496-20.736 45.856-47.584 84.096-73.92zM143.136 311.744c3.744 86.304 27.776 151.584 48.384 192.064 72.256-124.384 181.824-173.088 181.824-173.088-32.768-29.888-92.256-68.96-144.704-93.856-16.384-8.032-32-14.304-45.856-18.656a149.792 149.792 0 0 0-22.816-5.632 12.16 12.16 0 0 0-13.888 10.464c-1.088 9.632-1.856 19.136-2.336 28.608-1.568 21.056-1.856 40.96-0.64 60.096z m114.88 290.272c0 49.504 39.008 89.696 87.072 89.696s87.072-40.192 87.072-89.696-39.008-89.664-87.072-89.664-87.104 40.16-87.104 89.664z m215.04 103.2c0 23.616 18.56 42.432 41.216 42.432 22.944 0 41.344-19.136 41.344-42.432 0-23.328-18.72-42.272-41.344-42.272-22.624 0-41.216 18.624-41.216 42.24z m275.808-38.72h3.264a18.912 18.912 0 0 0 18.56-15.136c2.048-10.912-4.672-21.216-14.976-22.656l-85.376-16.384 82.432-58.208a20.128 20.128 0 0 0 4.992-27.296 18.72 18.72 0 0 0-26.24-4.832l-119.68 85.184a19.136 19.136 0 0 0-7.68 19.936c1.28 7.872 7.68 13.344 15.008 15.104l129.696 24.256z m2.272-211.648c2.976 0.704 5.856 1.44 8.64 2.368 2.592 0.64 4.992 1.472 7.424 2.368 1.28 0.448 2.496 0.896 3.84 1.312a298.08 298.08 0 0 0-99.136-93.696 288.416 288.416 0 0 0-55.872-24.736c-3.04-1.056-6.176-1.92-9.376-2.752a288.768 288.768 0 0 1-5.12-1.44c-1.76-0.384-3.52-0.832-5.248-1.28a318.112 318.112 0 0 0-70.624-8.864 310.432 310.432 0 0 0-89.728 10.944c-4.128 0.864-8.224 2.08-12.096 3.2l-1.664 0.512c-5.6 1.76-11.2 3.52-16.544 5.44-17.92 6.912-35.264 15.136-51.648 24.448a327.008 327.008 0 0 0-96.32 84.864c3.616-1.28 7.2-2.4 10.336-3.392a209.728 209.728 0 0 1 116.096 2.56c29.984 9.824 57.92 27.04 79.136 51.136 31.04 35.36 45.76 81.312 49.792 128.096 0.16 1.44 2.016 1.44 2.016 0 2.816-42.752 13.28-85.824 37.632-120.704 23.104-32.96 60.704-53.344 98.784-61.568 28.096-5.92 66.496-7.232 94.592-0.16 1.696 0.48 3.424 0.896 5.12 1.312z m49.056-217.984c-52.448 24.896-111.904 63.968-144.672 93.856 0 0 109.568 48.704 181.824 173.12 20.608-40.512 44.64-105.76 48.384-192.096 1.28-19.104 0.96-39.04-0.64-60.096-0.448-9.472-1.216-18.976-2.336-28.608a12.16 12.16 0 0 0-13.888-10.464c-7.04 0.96-14.336 3.072-22.784 5.632-13.888 4.352-29.504 10.624-45.888 18.656z m164.672 155.744l-18.112-6.592c-4.224-1.6-8.736 1.28-9.664 5.76-15.456 79.424-45.888 136.32-68.544 169.76a9.6 9.6 0 0 0 6.56 9.28l25.6 9.344c21.248 7.712 44.48-3.84 51.968-25.536l36.992-108.672c7.52-21.856-3.744-45.792-24.8-53.344zM123.296 580.32l25.6-9.312a9.92 9.92 0 0 0 6.56-9.344C132.832 528.256 102.4 471.36 86.944 392c-0.96-4.512-5.44-7.392-9.696-5.792l-18.08 6.592c-21.248 7.68-32.32 31.68-24.832 53.344l36.992 108.672c7.488 21.856 30.72 33.28 51.968 25.536z m221.792 93.536c-37.12 0-67.424-31.168-67.424-69.44h27.776c0 22.528 17.792 40.832 39.648 40.832s39.648-18.304 39.648-40.8h27.776c0 38.24-30.272 69.44-67.424 69.44z m-27.008-104.32a16.48 16.48 0 0 1-16.224 16.736 16.48 16.48 0 0 1-16.224-16.704c0-9.248 7.264-16.736 16.224-16.736s16.224 7.488 16.224 16.736z" fill="#1677ff" p-id="14008"></path></svg>